<svg width="1440" height="484" viewBox="0 0 1440 484" fill="none" xmlns="http://www.w3.org/2000/svg">
<path d="M930.937 484C824.458 484 734.857 443.904 708.153 389.384C671.233 403.313 626.704 411.451 578.73 411.451C498.205 411.451 427.396 388.501 386.063 353.75C373.608 354.905 360.848 355.54 347.795 355.54C236.642 355.54 143.867 311.847 121.848 253.662C49.0173 230.102 0 186.258 0 136.018C0 60.893 109.501 1.57506e-05 244.543 1.57506e-05H1195.48C1330.52 1.57506e-05 1440 60.893 1440 136.018C1440 189.922 1383.62 236.498 1301.89 258.517C1302.73 262.961 1303.16 267.477 1303.16 272.047C1303.16 327.378 1240.26 374.529 1152.07 392.606C1123.46 445.482 1035.31 484 930.937 484Z" fill="white"/>
</svg>
