<svg xmlns="http://www.w3.org/2000/svg" width="72" height="120" viewBox="0 0 72 120" fill="none"><path d="M44.8368 55.4484C45.1669 55.1414 45.4651 55.0119 45.6018 54.7617C52.733 46.7022 59.1296 38.144 63.75 28.2582C65.8392 23.7794 67.2345 19.0839 68.3637 14.3406C68.6761 13.1143 69.0933 11.8154 69.4945 10.6052C69.6632 10.1775 69.9365 9.67709 70.2666 9.37012C70.476 9.22462 70.9516 9.12707 71.2018 9.26374C71.452 9.40042 71.5496 9.87602 71.5016 10.1422C69.0212 21.8791 64.9917 33.0622 57.9117 42.8714C54.259 47.8932 50.5336 52.8102 46.3237 57.3651C45.8729 57.8336 45.2855 58.5522 45.2783 59.1005C45.1852 66.2291 42.8172 72.7647 39.6098 78.8743C34.6985 88.3412 29.3754 97.5508 24.2139 106.881C23.9245 107.47 23.5305 108.132 23.4594 109.035C29.7277 105.767 35.9232 102.394 42.2961 99.0536C42.8302 100.157 42.5249 100.835 41.9534 101.465C41.2772 102.168 40.585 102.959 39.7473 103.541C35.0674 106.637 30.3874 109.734 25.6347 112.725C24.6036 113.364 23.427 113.793 22.2663 114.134C19.9611 114.726 18.451 113.447 18.5116 111.076C18.7056 106.439 18.9722 101.906 19.3436 97.3013C19.4059 95.9384 20.0821 95.2357 21.0901 95.2341C21.9933 95.3052 22.68 96.0701 22.7065 97.449C22.7346 99.8358 22.5853 102.191 22.5655 104.844C22.9116 104.448 23.121 104.303 23.2577 104.052C28.0803 94.5694 32.9917 85.1024 37.6528 75.4988C39.0835 72.6418 39.941 69.4068 40.9439 66.3813C41.3451 65.171 41.4074 63.8081 41.695 62.211C40.9781 62.6315 40.4545 62.9953 40.0357 63.2863C36.8305 65.8236 33.3183 68.0308 29.4743 69.537C26.0333 70.841 22.5425 71.4031 18.8319 70.6432C17.6057 70.3307 16.2908 70.0023 15.1125 69.4236C9.88304 66.9244 7.84995 61.4283 10.1309 55.8847C12.8451 48.9534 21.6142 41.4637 31.9794 43.4223C37.8355 44.477 41.7765 48.0267 44.0917 53.482C44.3507 54.0783 44.5938 54.7634 44.8368 55.4484ZM19.1907 68.1428C22.5783 68.6614 25.5775 68.2855 28.4382 67.1518C33.04 65.5073 37.0189 62.7429 40.6909 59.6484C41.5446 58.9777 41.6884 58.1791 41.598 57.1552C40.9118 51.81 36.2593 47.1246 30.9924 46.3591C23.8462 45.3468 15.4838 50.0699 12.7129 56.8077C10.8011 61.3186 12.4528 65.3719 16.8589 67.3564C17.7143 67.6937 18.6743 67.9582 19.1907 68.1428Z" fill="#FF6854"></path></svg>