<svg xmlns="http://www.w3.org/2000/svg" width="130" height="115" viewBox="0 0 130 115" fill="none"><path d="M64.3286 73.911C65.0463 71.5189 65.2995 69.6532 66.1416 68.1185C67.6885 65.2894 69.6672 62.705 71.3113 59.9353C74.1936 55.0914 76.8608 50.1161 79.8125 45.3146C81.4813 42.5981 83.2522 39.8391 85.489 37.6124C88.1124 35.0024 91.8109 34.9075 94.3971 36.6491C97.2525 38.5743 98.2388 42.2644 96.4685 46.0054C95.3379 48.4026 93.9404 50.8464 92.086 52.6967C86.1882 58.5769 80.058 64.2293 73.9319 69.8748C72.3639 71.3186 70.5848 72.6241 68.7052 73.6107C67.726 74.1372 66.3003 73.8192 64.3286 73.911Z" fill="#343E61"></path><path d="M25.9853 70.0955C25.3669 70.3278 24.6165 70.8701 23.9602 70.7742C23.2832 70.6657 22.3882 70.0714 22.1406 69.4627C21.5399 67.9808 21.1563 66.3932 20.8675 64.8063C19.1847 55.5159 17.5175 46.2159 15.9534 36.9027C15.6484 35.0772 15.5522 33.1125 15.8776 31.3003C16.4975 27.8669 19.469 25.3267 22.5279 25.1555C25.5463 24.9882 28.5753 27.3625 29.6128 30.7504C29.8509 31.5153 30.0524 32.3245 30.0795 33.1225C30.4493 44.7655 29.8587 56.3269 27.0072 67.6891C26.8212 68.4618 26.3887 69.1698 25.9853 70.0955Z" fill="#343E61"></path><path d="M113.233 83.6053C112.174 84.3404 110.565 85.9305 108.634 86.7047C101.63 89.527 94.5242 92.096 87.4373 94.6958C86.4427 95.0604 85.3219 95.1478 84.2517 95.1993C82.8981 95.2779 81.317 95.1985 81.0228 93.5893C80.8649 92.74 81.5518 91.6157 82.1037 90.7901C82.5257 90.1615 83.3363 89.7703 84.0093 89.3237C90.5433 85.0233 97.0457 80.6656 103.657 76.4886C105.438 75.3658 107.501 74.548 109.547 74.0536C111.432 73.604 113.329 74.1337 114.441 76.0423C115.466 77.8121 115.536 79.6176 114.549 81.4356C114.289 81.9246 113.988 82.3699 113.233 83.6053Z" fill="#343E61"></path></svg>