<svg xmlns="http://www.w3.org/2000/svg" width="24" height="36" viewBox="0 0 24 36" fill="none"><path opacity="0.2" d="M13.0052 21.8568C13.2452 19.4968 13.3851 17.2568 13.7051 15.0368C14.2651 11.2068 15.6751 7.62679 17.3551 4.16679C17.8751 3.09679 18.5851 2.09679 19.3051 1.13679C19.9051 0.336794 20.7051 -0.223194 21.8251 0.0868059C22.9251 0.386806 23.3351 1.25679 23.5151 2.24679C23.9151 4.47679 23.9851 6.7268 23.6251 8.9568C23.0851 12.3368 22.4251 15.6968 21.8851 19.0768C21.2551 23.0168 20.6952 26.9668 20.0951 30.9168C19.9552 31.8268 19.7751 32.7268 19.6251 33.6368C19.3651 35.3068 17.7451 36.5168 15.8451 35.4768C10.6252 32.5968 5.69515 29.3168 1.65515 24.8668C0.955147 24.1068 0.515128 23.0568 0.135128 22.0768C-0.254872 21.0868 0.235137 19.9868 1.14514 19.4168C2.08514 18.8268 3.11515 18.6168 4.22515 18.7268C6.87515 18.9868 9.25513 20.0368 11.5751 21.2468C11.8951 21.4068 12.1951 21.5968 12.5151 21.7468C12.6551 21.8068 12.8052 21.8168 13.0052 21.8568Z" fill="#343E61"></path></svg>