<svg xmlns="http://www.w3.org/2000/svg" width="66" height="64" viewBox="0 0 66 64" fill="none"><path d="M25.9894 29.1825C27.8782 24.8954 29.2828 20.512 31.5834 16.6343C36.3782 8.61411 43.4978 3.19503 52.579 0.593882C60.0619 -1.54966 65.3412 2.23168 65.9466 9.96288C66.213 13.3588 65.4623 16.5862 64.1546 19.6931C62.072 24.6064 59.4324 29.1825 55.9936 33.2769C51.1503 39.0331 46.2102 44.7172 41.4395 50.5457C38.9452 53.6044 36.7415 56.8799 34.3441 60.0109C31.0991 64.2739 27.6118 65.165 23.0591 62.4676C14.995 57.6747 8.26288 51.3886 2.98368 43.5851C0.634677 40.0928 -0.0676279 36.0948 0.00502159 32.1449C0.126104 26.22 5.11474 20.0785 13.5905 21.9571C17.3199 22.776 20.4195 24.7991 23.3497 27.1112C24.3426 27.8819 25.2871 28.6045 25.9894 29.1825Z" fill="#FF6854"></path></svg>