<svg width="50" height="50" viewBox="0 0 50 50" fill="none" xmlns="http://www.w3.org/2000/svg">
<path d="M45.8332 33.7293C45.8332 41.3126 41.3123 45.8334 33.729 45.8334H31.2498C30.104 45.8334 29.1665 44.8959 29.1665 43.7501V31.7292C29.1665 31.1667 29.6248 30.6876 30.1873 30.6876L33.854 30.6251C34.1457 30.6042 34.3957 30.3959 34.4582 30.1042L35.1873 26.1251C35.2015 26.0349 35.1959 25.9427 35.171 25.8549C35.1461 25.767 35.1024 25.6857 35.043 25.6164C34.9836 25.547 34.9099 25.4914 34.8269 25.4534C34.7439 25.4153 34.6536 25.3957 34.5623 25.3959L30.1248 25.4584C29.5415 25.4584 29.0832 25.0001 29.0623 24.4376L28.979 19.3334C28.979 19.0001 29.2498 18.7084 29.604 18.7084L34.604 18.6251C34.9582 18.6251 35.229 18.3542 35.229 18.0001L35.1457 13.0001C35.1457 12.6459 34.8748 12.3751 34.5207 12.3751L28.8957 12.4584C28.0745 12.4709 27.264 12.6453 26.5104 12.9716C25.7568 13.2979 25.0749 13.7697 24.504 14.36C23.9331 14.9503 23.4843 15.6474 23.1832 16.4115C22.8822 17.1755 22.7349 17.9915 22.7498 18.8126L22.854 24.5417C22.8748 25.1251 22.4165 25.5834 21.8332 25.6042L19.3332 25.6459C18.979 25.6459 18.7082 25.9167 18.7082 26.2709L18.7707 30.2292C18.7707 30.5834 19.0415 30.8543 19.3957 30.8543L21.8957 30.8126C22.479 30.8126 22.9373 31.2709 22.9582 31.8334L23.1457 43.7084C23.1665 44.8751 22.229 45.8334 21.0623 45.8334H16.2707C8.68734 45.8334 4.1665 41.3126 4.1665 33.7084V16.2709C4.1665 8.68758 8.68734 4.16675 16.2707 4.16675H33.729C41.3123 4.16675 45.8332 8.68758 45.8332 16.2709V33.7293Z" fill="black" fill-opacity="0.69"/>
</svg>
