<svg width="50" height="50" viewBox="0 0 50 50" fill="none" xmlns="http://www.w3.org/2000/svg">
<path d="M33.729 7.16675H16.2707C8.68734 7.16675 4.1665 11.6876 4.1665 19.2709V36.7084C4.1665 44.3126 8.68734 48.8334 16.2707 48.8334H33.7082C41.2915 48.8334 45.8123 44.3126 45.8123 36.7293V19.2709C45.8332 11.6876 41.3123 7.16675 33.729 7.16675ZM24.9998 36.0834C20.5415 36.0834 16.9165 32.4584 16.9165 28.0001C16.9165 23.5417 20.5415 19.9167 24.9998 19.9167C29.4582 19.9167 33.0832 23.5417 33.0832 28.0001C33.0832 32.4584 29.4582 36.0834 24.9998 36.0834V36.0834ZM37.3332 17.3334C37.229 17.5834 37.0832 17.8126 36.8957 18.0209C36.6873 18.2084 36.4582 18.3542 36.2082 18.4584C35.829 18.6194 35.4105 18.6637 35.0061 18.5858C34.6016 18.5078 34.2296 18.3112 33.9373 18.0209C33.7498 17.8126 33.604 17.5834 33.4998 17.3334C33.3928 17.083 33.3362 16.814 33.3332 16.5417C33.3332 16.2709 33.3957 16.0001 33.4998 15.7501C33.604 15.4792 33.7498 15.2709 33.9373 15.0626C34.4165 14.5834 35.1457 14.3542 35.8123 14.5001C35.9582 14.5209 36.0832 14.5626 36.2082 14.6251C36.3332 14.6667 36.4582 14.7292 36.5832 14.8126C36.6873 14.8751 36.7915 14.9792 36.8957 15.0626C37.0832 15.2709 37.229 15.4792 37.3332 15.7501C37.4373 16.0001 37.4998 16.2709 37.4998 16.5417C37.4998 16.8126 37.4373 17.0834 37.3332 17.3334V17.3334Z" fill="black" fill-opacity="0.69"/>
</svg>
