<svg width="1440" height="387" viewBox="0 0 1440 387" fill="none" xmlns="http://www.w3.org/2000/svg">
<path d="M0 203.774L34.3 208.398C68.7 212.85 137.3 222.097 205.8 224.665C274.3 227.234 342.7 223.124 411.2 196.411C479.7 169.527 548.3 119.867 617 100.517C685.7 80.996 754.3 91.9553 823 102.743C891.7 113.531 960.3 124.491 1028.8 135.279C1097.3 146.067 1165.7 157.026 1234.2 134.423C1302.7 111.819 1371.3 55.9951 1405.7 27.9119L1440 0V387H1405.7C1371.3 387 1302.7 387 1234.2 387C1165.7 387 1097.3 387 1028.8 387C960.3 387 891.7 387 823 387C754.3 387 685.7 387 617 387C548.3 387 479.7 387 411.2 387C342.7 387 274.3 387 205.8 387C137.3 387 68.7 387 34.3 387H0V203.774Z" fill="#0066FF"/>
</svg>
