<svg width="50" height="50" viewBox="0 0 50 50" fill="none" xmlns="http://www.w3.org/2000/svg">
<path d="M45.7916 23.7709C45.0833 11.6875 34.1041 2.37504 21.4583 4.45838C12.75 5.89588 5.7708 12.9584 4.41663 21.6667C3.62496 26.7084 4.66663 31.4792 6.93746 35.4167L5.0833 42.3125C4.66663 43.875 6.10413 45.2917 7.6458 44.8542L14.4375 42.9792C17.5208 44.7917 21.125 45.8334 24.9791 45.8334C36.7291 45.8334 46.4791 35.4792 45.7916 23.7709ZM35.1666 32.75C34.6642 33.7807 33.8058 34.5947 32.75 35.0417C32.125 35.3125 31.4375 35.4375 30.7083 35.4375C29.6458 35.4375 28.5 35.1875 27.3125 34.6667C26.0469 34.111 24.8454 33.4195 23.7291 32.6042C22.5208 31.7292 21.3958 30.75 20.3125 29.6875C19.2291 28.6042 18.2708 27.4584 17.3958 26.2709C16.5416 25.0834 15.8541 23.8959 15.3541 22.7084C14.8541 21.5209 14.6041 20.375 14.6041 19.2917C14.6041 18.5834 14.7291 17.8959 14.9791 17.2709C15.2291 16.625 15.625 16.0417 16.1875 15.5209C16.8541 14.8542 17.5833 14.5417 18.3541 14.5417C18.6458 14.5417 18.9375 14.6042 19.2083 14.7292C19.4791 14.8542 19.7291 15.0417 19.9166 15.3125L22.3333 18.7292C22.5208 19 22.6666 19.2292 22.75 19.4584C22.8541 19.6875 22.8958 19.8959 22.8958 20.1042C22.8958 20.3542 22.8125 20.6042 22.6666 20.8542C22.5208 21.1042 22.3333 21.3542 22.0833 21.6042L21.2916 22.4375C21.1666 22.5625 21.125 22.6875 21.125 22.8542C21.125 22.9375 21.1458 23.0209 21.1666 23.1042C21.2083 23.1875 21.2291 23.25 21.25 23.3125C21.4375 23.6667 21.7708 24.1042 22.2291 24.6459C23.2045 25.7921 24.2704 26.858 25.4166 27.8334C25.9583 28.2917 26.4166 28.6042 26.7708 28.7917C26.8333 28.8125 26.8958 28.8542 26.9583 28.875C27.0416 28.9167 27.125 28.9167 27.2291 28.9167C27.4166 28.9167 27.5416 28.8542 27.6666 28.7292L28.4583 27.9375C28.7291 27.6667 28.9791 27.4792 29.2083 27.3542C29.4583 27.2084 29.6875 27.125 29.9583 27.125C30.1666 27.125 30.375 27.1667 30.6041 27.2709C30.8333 27.375 31.0833 27.5 31.3333 27.6875L34.7916 30.1459C35.0625 30.3334 35.25 30.5625 35.375 30.8125C35.4791 31.0834 35.5416 31.3334 35.5416 31.625C35.4166 31.9792 35.3333 32.375 35.1666 32.75V32.75Z" fill="black" fill-opacity="0.69"/>
</svg>
